<svg width="46" height="46" viewBox="0 0 46 46" fill="none" xmlns="http://www.w3.org/2000/svg">
<g clip-path="url(#clip0_517_1437)">
<ellipse cx="22.5963" cy="23.0001" rx="20.9825" ry="22.193" fill="#0061C2"/>
<mask id="mask0_517_1437" style="mask-type:alpha" maskUnits="userSpaceOnUse" x="9" y="12" width="28" height="34">
<path fill-rule="evenodd" clip-rule="evenodd" d="M9.6842 45.478C9.84474 30.0504 15.4914 16.9153 23.2498 12.1055C31.0081 16.9154 36.5844 30.0504 36.743 45.478H34.4554V41.2594C33.9158 36.531 32.6422 32.3569 30.8831 29.2393L29.5579 30.3193L30.0111 27.8426C29.498 27.0966 28.9541 26.4326 28.3816 25.8608L26.9323 27.8755L26.6326 24.4577C25.9587 24.0424 25.257 23.746 24.5365 23.5823L23.2137 26.1358L21.8907 23.5822C21.1654 23.7471 20.4591 24.0468 19.7812 24.4665L19.4972 27.7261L18.1089 25.7994C17.5136 26.385 16.9479 27.0696 16.4164 27.8426L16.8693 30.3193L15.546 29.2393C13.7868 32.3571 12.5111 36.5306 11.9715 41.2595V45.478H9.6842Z" fill="#C3CCCE"/>
</mask>
<g mask="url(#mask0_517_1437)">
<ellipse cx="22.5963" cy="23.0001" rx="20.9825" ry="22.193" fill="white"/>
</g>
<g clip-path="url(#clip1_517_1437)">
<path d="M21.9421 35.1446L32.8048 41.4161C33.1372 41.608 33.5322 41.6601 33.903 41.5607C34.2738 41.4614 34.5899 41.2188 34.7818 40.8864L40.0885 31.6949L36.8754 27.6116L37.6164 22.4688L31.3495 18.8506C31.017 18.6587 30.622 18.6067 30.2512 18.706C29.8805 18.8054 29.5643 19.0479 29.3724 19.3803L21.4124 33.1675C21.2205 33.5 21.1684 33.895 21.2678 34.2658C21.3671 34.6365 21.6097 34.9526 21.9421 35.1446Z" fill="#86A2CD"/>
<path d="M34.9631 27.0647L37.6165 22.469L40.0886 31.6951L35.4928 29.0418C35.1604 28.8498 34.9179 28.5337 34.8185 28.163C34.7192 27.7922 34.7712 27.3971 34.9631 27.0647Z" fill="#A2CDED"/>
</g>
<path d="M24.3663 31.5322C24.9144 31.5962 25.4516 31.7086 25.9757 31.8633L27.8615 29.71L28.1017 32.7656C28.5766 33.0335 29.0326 33.3363 29.4659 33.6719L31.3029 32.4248L31.0167 35.0957C31.9115 36.0652 33.3938 38.708 34.6046 41.1992C31.2024 43.7153 27.0632 45.1933 22.5968 45.1934C18.5341 45.1934 14.7415 43.9708 11.5284 41.8564C12.8499 39.1437 14.5527 36.1177 15.4962 35.0957L15.2072 32.4248L17.0441 33.6719C17.4816 33.3334 17.9423 33.0285 18.422 32.7588L18.6486 29.8594L20.4318 31.8936C20.9877 31.7228 21.5602 31.6035 22.1437 31.5352L23.255 29.0527L24.3663 31.5322Z" fill="white"/>
</g>
<defs>
<clipPath id="clip0_517_1437">
<rect width="46" height="46" fill="white"/>
</clipPath>
<clipPath id="clip1_517_1437">
<rect width="23.1565" height="23.1565" fill="white" transform="translate(27.7184 14.5261) rotate(30)"/>
</clipPath>
</defs>
</svg>
